#!OML:ASF F:\VICON\USERDATA\INSTALL\rory3\rory3.ASF
:FULLY-SPECIFIED
:DEGREES
4915
root -0.900624 16.2121 -4.14684 -0.0765774 4.22294 1.33311
lowerback 10.9211 -4.74274 -7.24814
upperback 1.37523 -7.01533 3.215
thorax -3.36399 -3.40171 8.3669
lowerneck -19.851 -4.3293 -10.0604
upperneck 22.8358 -5.02458 7.91709
head 11.1536 -2.20391 3.80149
rclavicle -1.38155e-014 5.56597e-015
rhumerus -16.9766 8.95013 -69.7967
rradius 120.153
rwrist 9.67473
rhand -21.0035 21.3246
rfingers 7.12502
rthumb 5.37099 -8.58731
lclavicle -1.38155e-014 5.56597e-015
lhumerus 8.15474 -22.9803 87.8048
lradius 112.215
lwrist -18.8483
lhand -6.40652 6.14771
lfingers 7.12502
lthumb 19.4415 35.1958
rfemur -50.2283 -2.54628 10.1154
rtibia 67.403
rfoot 5.47515 4.50114
rtoes -3.82134
lfemur 5.80219 3.79147 -15.7028
ltibia 45.2157
lfoot -27.7428 0.00998557
ltoes -40.5164
4916
root -0.949935 16.154 -4.09923 -0.137152 3.64 1.2182
lowerback 10.973 -4.80544 -7.41952
upperback 1.24322 -7.12156 3.34475
thorax -3.47381 -3.44279 8.62851
lowerneck -19.6284 -4.08794 -10.1164
upperneck 22.8113 -4.65639 7.80467
head 11.0608 -2.06074 3.82798
rclavicle -4.74101e-014 2.3059e-014
rhumerus -18.4354 9.31727 -70.5489
rradius 120.697
rwrist 9.43459
rhand -20.9385 21.7792
rfingers 7.12502
rthumb 5.43368 -8.13116
lclavicle -4.74101e-014 2.3059e-014
lhumerus 8.44063 -21.827 87.5163
lradius 111.739
lwrist -19.357
lhand -6.47379 6.11629
lfingers 7.12502
lthumb 19.3768 35.1709
rfemur -50.7818 -1.55304 9.97669
rtibia 66.033
rfoot 3.96268 3.48334
rtoes -5.27852
lfemur 6.58044 4.68986 -15.3064
ltibia 44.6096
lfoot -28.6187 0.616391
ltoes -39.7307
4917
root -0.998287 16.0997 -4.0432 -0.213696 3.13903 1.07818
lowerback 10.8499 -4.97285 -7.48088
upperback 1.27399 -7.341 3.43244
thorax -3.31002 -3.56331 8.75892
lowerneck -19.6728 -3.80518 -10.0998
upperneck 22.7796 -4.21847 7.6692
head 11.0071 -1.87622 3.84268
rclavicle 8.33902e-014 -2.22639e-014
rhumerus -19.509 9.70987 -71.3887
rradius 121.172
rwrist 9.08085
rhand -20.0179 21.8415
rfingers 7.12502
rthumb 6.32257 -8.04416
lclavicle 8.33902e-014 -2.22639e-014
lhumerus 8.88541 -20.3311 87.0562
lradius 111.159
lwrist -19.8334
lhand -6.54566 6.03768
lfingers 7.12502
lthumb 19.3077 35.0992
rfemur -51.1179 -0.501049 9.76846
rtibia 64.2184
rfoot 2.50344 2.59531
rtoes -6.17491
lfemur 7.42697 5.43137 -14.8818
ltibia 43.9359
lfoot -29.5475 0.984023
ltoes -39.2305
4918
root -1.0475 16.0434 -3.97802 -0.223948 2.72745 1.21693
lowerback 10.4306 -5.26398 -7.74974
upperback 1.45188 -7.73279 3.35127
thorax -2.78722 -3.79446 8.78598
lowerneck -20.0854 -3.42216 -9.84167
upperneck 22.9179 -3.69178 7.54748
head 11.0733 -1.6231 3.83937
rclavicle -6.16232e-014 9.14409e-015
rhumerus -20.1343 10.4156 -72.4472
rradius 121.36
rwrist 9.59934
rhand -20.2247 21.7482
rfingers 7.12502
rthumb 6.12291 -8.1433
lclavicle -6.16232e-014 9.14409e-015
lhumerus 9.51761 -18.4169 86.2664
lradius 110.5
lwrist -20.1524
lhand -6.48972 5.75745
lfingers 7.12502
lthumb 19.3615 34.8136
rfemur -51.3537 0.557753 9.09893
rtibia 62.0627
rfoot 1.16409 1.66276
rtoes -5.76563
lfemur 8.32071 5.94245 -14.8052
ltibia 43.1079
lfoot -30.434 1.53955
ltoes -39.0783
4919
root -1.09659 15.9861 -3.90982 -0.259701 2.35289 1.30486
lowerback 10.1155 -5.61072 -7.97116
upperback 1.55553 -8.1984 3.29186
thorax -2.3867 -4.05407 8.82703
lowerneck -20.3365 -2.91732 -9.54778
upperneck 23.0664 -3.01945 7.41107
head 11.0987 -1.30637 3.84809
rclavicle 1.97791e-014 -1.78906e-014
rhumerus -20.8606 11.4171 -73.4633
rradius 121.539
rwrist 10.3399
rhand -21.288 21.9341
rfingers 7.12502
rthumb 5.09624 -7.9846
lclavicle 1.97791e-014 -1.78906e-014
lhumerus 9.83538 -16.1794 85.4127
lradius 109.984
lwrist -20.1441
lhand -6.34936 5.52601
lfingers 7.12502
lthumb 19.4965 34.5685
rfemur -51.4337 1.68838 8.37498
rtibia 59.6556
rfoot 0.0650959 0.61665
rtoes -5.0412
lfemur 9.31736 6.26628 -14.6854
ltibia 42.1121
lfoot -31.2172 2.04158
ltoes -38.5104
4920
root -1.1456 15.9255 -3.83802 -0.350249 1.9425 1.17964
lowerback 10.1086 -5.88864 -8.06646
upperback 1.47478 -8.57728 3.45035
thorax -2.35075 -4.24474 9.07807
lowerneck -20.3432 -2.44763 -9.48065
upperneck 23.1701 -2.29008 7.07707
head 11.0599 -1.01258 3.82745
rclavicle -1.07642e-013 3.97569e-015
rhumerus -21.8684 12.5147 -74.0693
rradius 122.064
rwrist 10.4814
rhand -21.4714 21.9481
rfingers 7.12502
rthumb 4.91923 -7.9748
lclavicle -1.07642e-013 3.97569e-015
lhumerus 9.80149 -13.8568 84.7996
lradius 109.646
lwrist -19.4181
lhand -6.45814 5.29567
lfingers 7.12502
lthumb 19.3919 34.3487
rfemur -51.3859 2.89615 7.83478
rtibia 57.1245
rfoot -0.417062 -0.507652
rtoes -4.36918
lfemur 10.4333 6.42383 -14.367
ltibia 40.9724
lfoot -31.9925 2.36566
ltoes -38.1919
4921
root -1.19704 15.8635 -3.75744 -0.383062 1.70073 1.14086
lowerback 10.2509 -6.2099 -8.28787
upperback 1.19729 -9.03935 3.75409
thorax -2.53999 -4.45632 9.59826
lowerneck -20.433 -2.00954 -9.59812
upperneck 23.5156 -1.46929 6.47229
head 11.1236 -0.731548 3.75711
rclavicle -3.81667e-014 -2.14687e-014
rhumerus -22.9594 13.8323 -74.2898
rradius 122.754
rwrist 10.3778
rhand -20.8883 21.8571
rfingers 7.12502
rthumb 5.48221 -8.05199
lclavicle -3.81667e-014 -2.14687e-014
lhumerus 9.47675 -11.322 84.4436
lradius 109.452
lwrist -17.9861
lhand -6.28099 5.22755
lfingers 7.12502
lthumb 19.5622 34.2634
rfemur -51.2822 3.9287 7.12628
rtibia 54.6636
rfoot -0.210368 -1.51469
rtoes -3.4902
lfemur 11.5263 6.30296 -14.1959
ltibia 39.7426
lfoot -32.7794 2.88523
ltoes -38.4508
4922
root -1.25271 15.806 -3.67367 -0.389106 1.6109 1.06918
lowerback 10.5018 -6.56962 -8.44986
upperback 0.83349 -9.55533 4.08376
thorax -2.86584 -4.68163 10.1447
lowerneck -20.6488 -1.5357 -9.70766
upperneck 24.0139 -0.581024 5.85137
head 11.2692 -0.426771 3.69471
rclavicle -4.37326e-015 6.36111e-015
rhumerus -23.9955 15.2594 -74.4226
rradius 123.35
rwrist 10.8306
rhand -20.3939 21.9038
rfingers 7.12502
rthumb 5.95956 -7.99237
lclavicle -4.37326e-015 6.36111e-015
lhumerus 8.91455 -8.71233 84.0431
lradius 109.427
lwrist -16.2775
lhand -5.8995 5.41758
lfingers 7.12502
lthumb 19.929 34.4157
rfemur -51.1245 4.9819 6.33438
rtibia 52.4409
rfoot 0.440917 -2.31194
rtoes -2.74805
lfemur 12.6156 5.88356 -14.0632
ltibia 38.4409
lfoot -33.452 3.76394
ltoes -38.7965
4923
root -1.31975 15.7448 -3.59097 -0.429972 1.57326 1.06856
lowerback 10.7363 -6.89808 -8.75024
upperback 0.552196 -10.0467 4.33834
thorax -3.08279 -4.9014 10.6788
lowerneck -20.8657 -0.995109 -9.70657
upperneck 24.4053 0.327614 5.39789
head 11.378 -0.0827273 3.6767
rclavicle -2.59414e-014 3.65764e-014
rhumerus -24.8865 16.5526 -74.51
rradius 124.082
rwrist 11.3875
rhand -19.781 21.9342
rfingers 7.12502
rthumb 6.5512 -7.94447
lclavicle -2.59414e-014 3.65764e-014
lhumerus 8.48572 -6.14467 83.3624
lradius 109.539
lwrist -14.4835
lhand -5.46107 5.96717
lfingers 7.12502
lthumb 20.3504 34.9209
rfemur -50.9824 6.08025 5.44392
rtibia 50.6527
rfoot 1.4489 -2.86467
rtoes -1.36646
lfemur 13.7429 5.31485 -14.0286
ltibia 37.046
lfoot -33.9525 4.58685
ltoes -38.4696
4924
root -1.39639 15.6892 -3.50246 -0.348767 1.71106 1.46114
lowerback 10.7683 -7.21445 -9.45343
upperback 0.293875 -10.5631 4.46777
thorax -3.10102 -5.14189 11.2643
lowerneck -21.0744 -0.473398 -9.59121
upperneck 24.6474 1.18265 4.9224
head 11.4398 0.246454 3.61877
rclavicle 2.06537e-013 -7.07673e-014
rhumerus -25.6085 17.5801 -74.3985
rradius 125.182
rwrist 11.142
rhand -18.1591 21.8088
rfingers 7.12502
rthumb 8.11677 -8.01532
lclavicle 2.06537e-013 -7.07673e-014
lhumerus 8.17957 -3.65053 82.5502
lradius 109.843
lwrist -12.4834
lhand -4.84097 6.66392
lfingers 7.12502
lthumb 20.9462 35.5529
rfemur -51.0246 6.80321 4.22339
rtibia 49.5209
rfoot 2.88879 -3.24073
rtoes -0.54359
lfemur 14.7043 4.61336 -14.4771
ltibia 35.6435
lfoot -34.4055 5.21743
ltoes -37.2675
4925
root -1.48312 15.6479 -3.40481 -0.187014 2.05033 2.10666
lowerback 10.7505 -7.52785 -10.437
upperback 0.0141023 -11.1111 4.57531
thorax -3.04531 -5.39829 11.9702
lowerneck -21.413 0.0201637 -9.64565
upperneck 24.8373 2.02878 4.60898
head 11.5098 0.577164 3.64977
rclavicle 3.07122e-014 -2.94201e-014
rhumerus -26.2281 18.3737 -74.0809
rradius 126.505
rwrist 10.4107
rhand -15.9478 22.0395
rfingers 7.12502
rthumb 10.2505 -7.69069
lclavicle 3.07122e-014 -2.94201e-014
lhumerus 7.81967 -1.18708 81.7325
lradius 110.494
lwrist -10.6782
lhand -4.02407 7.24709
lfingers 7.12502
lthumb 21.7308 36.0473
rfemur -51.2336 7.28129 2.78344
rtibia 49.0717
rfoot 4.44256 -3.84786
rtoes -1.67788
lfemur 15.5649 3.84052 -15.2016
ltibia 34.2134
lfoot -34.6998 6.1844
ltoes -36.1067
